HIERARCHY
ROOT hip
{
	OFFSET 0.000000 0.000000 0.000000 
	CHANNELS 6 Xposition Yposition Zposition Xrotation Zrotation Yrotation
	JOINT abdomen
	{
		OFFSET 0.000000 3.402643 0.000000 
		CHANNELS 3 Xrotation Zrotation Yrotation
		JOINT chest
		{
			OFFSET 0.000000 8.438565 -0.680529 
			CHANNELS 3 Xrotation Zrotation Yrotation
			JOINT neck
			{
				OFFSET 0.000000 10.207942 -0.272212 
				CHANNELS 3 Xrotation Zrotation Yrotation
				JOINT head
				{
					OFFSET 0.000000 3.130431 0.000000 
					CHANNELS 3 Xrotation Zrotation Yrotation
					End Site
					{
						OFFSET 0.000000 3.130435 0.000000 
					}
				}
			}
			JOINT lCollar
			{
				OFFSET 3.470700 6.669187 -0.816635 
				CHANNELS 3 Yrotation Zrotation Xrotation
				JOINT lShldr
				{
					OFFSET 3.198488 0.000000 0.000000 
					CHANNELS 3 Zrotation Yrotation Xrotation
					JOINT lForeArm
					{
						OFFSET 10.139888 0.000000 0.000000 
						CHANNELS 3 Yrotation Zrotation Xrotation
						JOINT lHand
						{
							OFFSET 8.370511 0.000000 0.000000 
							CHANNELS 3 Zrotation Yrotation Xrotation
							End Site
							{
								OFFSET 4.083176 0.000000 0.000000 
							}
						}
					}
				}
			}
			JOINT rCollar
			{
				OFFSET -3.470700 6.669187 -0.816635 
				CHANNELS 3 Yrotation Zrotation Xrotation
				JOINT rShldr
				{
					OFFSET -3.198488 0.000000 0.000000 
					CHANNELS 3 Zrotation Yrotation Xrotation
					JOINT rForeArm
					{
						OFFSET -10.139888 0.000000 0.000000 
						CHANNELS 3 Yrotation Zrotation Xrotation
						JOINT rHand
						{
							OFFSET -8.370511 0.000000 0.000000 
							CHANNELS 3 Zrotation Yrotation Xrotation
							End Site
							{
								OFFSET -4.083176 0.000000 0.000000 
							}
						}
					}
				}
			}
		}
	}
	JOINT lThigh
	{
		OFFSET 5.308129 -1.633274 1.361059 
		CHANNELS 3 Xrotation Zrotation Yrotation
		JOINT lShin
		{
			OFFSET -2.041588 -20.007561 0.000000 
			CHANNELS 3 Xrotation Zrotation Yrotation
			JOINT lFoot
			{
				OFFSET 0.000000 -19.190928 -1.224953 
				CHANNELS 3 Xrotation Yrotation Zrotation
				End Site
				{
					OFFSET 0.000000 -2.449906 4.627600 
				}
			}
		}
	}
	JOINT rThigh
	{
		OFFSET -5.308129 -1.633274 1.361059 
		CHANNELS 3 Xrotation Zrotation Yrotation
		JOINT rShin
		{
			OFFSET 2.041588 -20.007561 0.000000 
			CHANNELS 3 Xrotation Zrotation Yrotation
			JOINT rFoot
			{
				OFFSET 0.000000 -19.190928 -1.224953 
				CHANNELS 3 Xrotation Yrotation Zrotation
				End Site
				{
					OFFSET 0.000000 -2.449906 4.627600 
				}
			}
		}
	}
}
MOTION
Frames: 10
Frame Time: 0.033333
-47.592548 48.002567 -53.449627 2.171235 -3.142278 58.249710 0.000000 0.000000 0.000000 -1.754312 7.750316 0.779817 -8.603516 0.000000 0.000000 20.670279 -4.928277 20.803040 -2.957607 -0.090307 -0.002318 -83.996864 -2.694365 -9.779739 -21.338095 -18.493078 7.587440 61.726059 -43.741745 3.697921 2.957607 0.090307 -0.002334 79.056183 2.291813 4.676243 6.787428 5.730243 8.586757 -19.918747 23.406279 17.973427 -11.962843 20.400175 12.336153 10.084261 -4.814348 3.410552 4.567624 -2.792370 -17.986826 9.067941 -16.197342 -26.104286 1.717633 7.597601 4.330554 -4.521840 -7.761454 6.908414 
-47.587227 48.003929 -53.447586 2.181036 -3.152016 58.248802 0.000000 0.000000 0.000000 -1.783837 7.740432 0.785932 -8.603516 0.000000 0.000000 20.787703 -4.916569 21.244247 -2.957607 -0.090307 -0.002318 -83.385696 -3.637392 -11.121058 -22.245314 -19.059597 7.842566 63.424240 -44.769699 2.857331 2.957607 0.090307 -0.002334 79.055229 2.321099 4.646955 6.737146 5.718736 8.641398 -19.909731 23.416758 17.964008 -11.961184 20.414944 12.315331 10.091169 -4.822536 3.409146 4.558065 -2.776086 -17.982231 9.087437 -16.177931 -26.112856 1.698052 7.583108 4.396860 -4.543281 -7.829004 6.910802 
-47.580532 48.004837 -53.446117 2.190836 -3.161755 58.238129 0.000000 0.000000 0.000000 -1.813403 7.740309 0.781986 -8.603516 0.000000 0.000000 20.885525 -4.905213 21.638342 -2.957607 -0.090307 -0.002318 -82.869133 -4.604841 -12.355332 -22.990990 -19.590435 8.029902 64.652313 -45.454163 2.288910 2.957607 0.090307 -0.002334 79.044701 2.349900 4.607997 6.697141 5.717298 8.683568 -19.911476 23.436222 17.964010 -11.990564 20.434311 12.291508 10.059214 -4.842666 3.400321 4.597856 -2.735583 -17.986200 9.127849 -16.159492 -26.133108 1.660491 7.582916 4.452557 -4.560100 -7.858552 6.919684 
-47.569210 48.007668 -53.446117 2.190878 -3.181271 58.237381 0.000000 0.000000 0.000000 -1.862680 7.740098 0.775410 -8.603516 0.000000 0.000000 21.012922 -4.902838 22.340380 -2.957607 -0.090307 -0.002318 -81.618996 -6.187676 -14.792547 -24.396799 -20.741768 8.518386 67.755302 -47.411140 1.186544 2.957607 0.090307 -0.002334 79.024246 2.378197 4.578901 6.627708 5.716621 8.728132 -19.903339 23.456436 17.960476 -12.008888 20.470596 12.277637 10.065433 -4.873069 3.378731 4.605896 -2.709305 -17.987307 9.165893 -16.110304 -26.148651 1.620138 7.563157 4.505860 -4.572035 -7.924810 6.932326 
-47.560711 48.010502 -53.446117 2.200659 -3.181251 58.246605 0.000000 0.000000 0.000000 -1.902145 7.749685 0.750298 -8.603516 0.000000 0.000000 21.150484 -4.919318 23.008066 -2.957607 -0.090307 -0.002318 -80.434784 -7.725042 -16.946104 -25.622194 -21.691723 8.835163 69.832169 -48.530609 0.285214 2.957607 0.090307 -0.002334 79.003296 2.416247 4.549392 6.577437 5.705097 8.781770 -19.915844 23.484884 17.940596 -12.019801 20.502848 12.236364 10.040453 -4.899579 3.349150 4.625883 -2.650149 -18.007343 9.247063 -16.093967 -26.192381 1.585257 7.562414 4.590733 -4.630365 -7.977953 6.917509 
-47.552101 48.010502 -53.443279 2.210460 -3.190988 58.245689 0.000000 0.000000 0.000000 -1.981173 7.788367 0.699368 -8.603516 0.000000 0.000000 21.376627 -4.953091 23.634504 -2.957607 -0.090307 -0.002318 -79.406212 -8.926179 -18.622334 -26.562885 -22.322474 8.973087 70.645851 -48.828831 -0.167564 2.957607 0.090307 -0.002334 78.963669 2.433793 4.530248 6.537248 5.703032 8.833679 -19.938242 23.512590 17.910612 -12.030714 20.535101 12.195082 10.052215 -4.941734 3.345387 4.633605 -2.611135 -18.014490 9.299448 -16.058229 -26.241993 1.543069 7.533042 4.664949 -4.654537 -8.019874 6.941607 
-47.546432 48.007668 -53.443279 2.220199 -3.171450 58.265427 0.000000 0.000000 0.000000 -2.040598 7.846645 0.572183 -8.603516 0.000000 0.000000 21.554943 -5.044799 24.143549 -2.957607 -0.090307 -0.002318 -78.653931 -9.913780 -19.823616 -27.157843 -22.736101 9.022673 70.079140 -48.481091 0.346726 2.957607 0.090307 -0.002334 78.893265 2.469335 4.540685 6.497252 5.701581 8.875846 -19.960640 23.540293 17.851330 -12.010049 20.551615 12.157051 10.053206 -4.981489 3.313344 4.636618 -2.556712 -18.006971 9.386800 -16.048386 -26.307795 1.511626 7.531543 4.767945 -4.675738 -8.090285 6.953345 
-47.543598 48.004837 -53.443279 2.220157 -3.151934 58.266186 0.000000 0.000000 0.000000 -2.100192 7.934188 0.432708 -8.603516 0.000000 0.000000 21.694735 -5.165676 24.483738 -2.957607 -0.090307 -0.002318 -78.240234 -10.366456 -20.385878 -27.187185 -22.821924 9.104943 68.294548 -47.603111 1.465198 2.957607 0.090307 -0.002334 78.823082 2.465773 4.648763 6.518311 5.696893 8.787463 -19.973154 23.568745 17.837317 -12.009315 20.568998 12.106965 10.050761 -5.028971 3.300201 4.635547 -2.503852 -18.000090 9.474518 -16.029318 -26.342255 1.481515 7.509019 4.823578 -4.697093 -8.121792 6.981638 
-47.537937 48.002003 -53.446117 2.210335 -3.132438 58.267475 0.000000 0.000000 0.000000 -2.159919 8.041234 0.274130 -8.603516 0.000000 0.000000 21.785612 -5.287438 24.759493 -2.957607 -0.090307 -0.002318 -78.013489 -10.523836 -20.724068 -26.832609 -22.883677 9.317480 65.543068 -46.403137 3.338770 2.957607 0.090307 -0.002334 78.762993 2.462727 4.737221 6.549110 5.682846 8.689466 -19.974905 23.588209 17.837318 -11.991136 20.582706 12.079794 10.062638 -5.069045 3.277081 4.648391 -2.461127 -17.975185 9.536609 -16.042248 -26.379004 1.481825 7.529472 4.862431 -4.739115 -8.119096 6.969101 
-47.529320 47.999172 -53.451897 2.220115 -3.132417 58.257175 0.000000 0.000000 0.000000 -2.239470 8.157912 0.053596 -8.603516 0.000000 0.000000 21.886816 -5.427889 24.979736 -2.957607 -0.090307 -0.002318 -78.206184 -9.845586 -20.266899 -26.540071 -22.678839 9.310575 62.048027 -44.825806 5.432719 2.957607 0.090307 -0.002334 78.704758 2.430441 4.806149 6.599461 5.659188 8.581096 -19.956005 23.599436 17.847776 -11.980308 20.579817 12.061013 10.087707 -5.083974 3.264638 4.608631 -2.433844 -17.979517 9.596326 -16.032888 -26.442102 1.463611 7.513858 4.889762 -4.778350 -8.098695 6.986622 
